<?xml version="1.0" encoding="UTF-8"?>
<svg version="1.1" xmlns="http://www.w3.org/2000/svg" width="1080" height="1080">
<path d="M0 0 C356.4 0 712.8 0 1080 0 C1080 356.4 1080 712.8 1080 1080 C723.6 1080 367.2 1080 0 1080 C0 723.6 0 367.2 0 0 Z " fill="#2CC49B" transform="translate(0,0)"/>
<path d="M0 0 C1.17369141 0.18175781 1.17369141 0.18175781 2.37109375 0.3671875 C3.54865234 0.52574219 3.54865234 0.52574219 4.75 0.6875 C6.80859375 1.2421875 6.80859375 1.2421875 8.80859375 3.2421875 C9.00914918 5.94897451 9.08276086 8.55388921 9.07030678 11.26218987 C9.07430282 12.1056407 9.07829886 12.94909153 9.08241599 13.81810148 C9.0934858 16.67809828 9.09017475 19.53790459 9.08706665 22.3979187 C9.09206637 24.45986108 9.09794147 26.52180148 9.10462046 28.5837391 C9.12051788 34.28620544 9.12385847 39.98862263 9.12526956 45.69110845 C9.12895316 51.8522852 9.14411011 58.01343483 9.15786552 64.17459583 C9.18025037 74.92208295 9.19525766 85.66955468 9.20521545 96.41705894 C9.21581344 107.82784701 9.23056508 119.23861763 9.25065613 130.64939308 C9.25191109 131.36391592 9.25316606 132.07843876 9.25445905 132.81461381 C9.25957536 135.71970657 9.26472189 138.62479928 9.2699072 141.52989192 C9.32051997 169.8910138 9.35946935 198.252142 9.39288375 226.61328884 C9.42098327 250.45554772 9.45313556 274.297797 9.48919678 298.14004517 C9.49158504 299.72301511 9.49397242 301.30598505 9.49635892 302.88895499 C9.50471063 308.42771472 9.51306464 313.96647444 9.52143722 319.50523413 C9.63524934 394.8038288 9.72460933 470.10244236 9.80065918 545.40108395 C9.80705097 551.72906167 9.81352755 558.0570393 9.8200378 564.3850169 C9.87329181 616.18700263 9.91779777 667.98897776 9.92998993 719.79099107 C9.9317946 727.3825804 9.93404841 734.974169 9.93756866 742.56575775 C9.94532108 759.37560739 9.94884558 776.18543959 9.94303894 792.99529076 C9.94149335 797.85957312 9.94208262 802.72384719 9.94471741 807.58812904 C9.94754096 813.01837266 9.9457662 818.44859293 9.93995547 823.87883401 C9.93866041 825.81835526 9.93905355 827.75787849 9.94126821 829.6973989 C9.94397125 832.29729235 9.94061404 834.89710581 9.93557739 837.49699402 C9.93780792 838.2491657 9.94003844 839.00133739 9.94233656 839.77630216 C9.93052154 842.87565589 9.79680823 845.27754405 8.80859375 848.2421875 C7.39705276 848.51966992 5.97879576 848.76312266 4.55859375 848.9921875 C3.7696875 849.13140625 2.98078125 849.270625 2.16796875 849.4140625 C-0.19140625 849.2421875 -0.19140625 849.2421875 -2.30653596 847.62679338 C-4.74524355 844.54151134 -4.69712092 842.82474962 -4.7087059 838.91661835 C-4.72225719 837.60146162 -4.73580847 836.28630488 -4.7497704 834.93129492 C-4.7446455 833.46229267 -4.73915387 831.99329167 -4.7333374 830.52429199 C-4.74169017 828.95867136 -4.75178139 827.39305921 -4.76345325 825.82745981 C-4.79066057 821.47773296 -4.79260068 817.12829269 -4.79068768 812.77849436 C-4.79291854 808.01024245 -4.81812326 803.24210121 -4.84020233 798.47390747 C-4.88073498 788.89235329 -4.89896629 779.31086772 -4.91054165 769.72923976 C-4.92086969 761.67825026 -4.94038611 753.62732583 -4.96578217 745.57637024 C-4.96945838 744.40894501 -4.97313459 743.24151977 -4.9769222 742.03871801 C-4.98447394 739.64937727 -4.99203716 737.26003656 -4.99961159 734.87069589 C-5.09120857 705.45140558 -5.13524244 676.03208795 -5.17344894 646.6126934 C-5.18726797 636.02430415 -5.20310825 625.43591904 -5.21994019 614.84753418 C-5.34932094 533.23978842 -5.41830974 451.63212431 -5.42879486 370.02427673 C-5.42960943 363.81540783 -5.43043703 357.60653892 -5.43128221 351.39767002 C-5.43152117 349.61975677 -5.43175423 347.84184353 -5.43198139 346.06393029 C-5.43571556 317.00140781 -5.45192984 287.93890929 -5.47483099 258.87639602 C-5.49938561 227.65698245 -5.51314194 196.4375827 -5.51434207 165.2181592 C-5.51451342 161.80851014 -5.5147288 158.39886109 -5.5149765 154.98921204 C-5.51503227 154.15053815 -5.51508804 153.31186427 -5.5151455 152.44777603 C-5.51629001 139.02969621 -5.52724466 125.61164211 -5.54186356 112.19357097 C-5.55615901 98.84857032 -5.5595021 85.50360273 -5.55142358 72.15859652 C-5.54695893 64.25320075 -5.55086556 56.34791173 -5.56666209 48.44252991 C-5.57750199 42.55950229 -5.57281619 36.67655588 -5.56189021 30.79352599 C-5.55991783 28.40815044 -5.56308185 26.02276434 -5.57173458 23.63740367 C-5.58269939 20.41325294 -5.5754321 17.18965701 -5.56334305 13.96552277 C-5.57093824 13.02749721 -5.57853343 12.08947164 -5.58635879 11.12302107 C-5.53538184 4.885477 -5.53538184 4.885477 -3.80512309 1.64961576 C-2.19140625 0.2421875 -2.19140625 0.2421875 0 0 Z " fill="#A9E6D6" transform="translate(974.19140625,126.7578125)"/>
<path d="M0 0 C1.2117785 -0.00975785 2.42355699 -0.0195157 3.67205605 -0.02956924 C5.02126347 -0.02017276 6.37046839 -0.01041124 7.71967083 -0.00032526 C9.1553848 -0.00419284 10.59109493 -0.009814 12.02679595 -0.01703486 C15.99461417 -0.03185273 19.96204053 -0.02158372 23.92984673 -0.00742287 C28.23793111 0.0035829 32.54595887 -0.00851554 36.85403883 -0.01773036 C44.41197529 -0.03066847 51.96979468 -0.02864508 59.52773148 -0.01695067 C70.76642709 0.00039156 82.00503015 -0.00505235 93.24373047 -0.01511758 C113.31289488 -0.03233687 133.38200478 -0.02675138 153.45116809 -0.01176039 C171.01430243 0.00127465 188.57741783 0.0064906 206.14055687 0.00392145 C207.30408758 0.00376103 208.4676183 0.00360062 209.66640752 0.00343534 C214.3891818 0.00277179 219.11195608 0.00206938 223.83473036 0.00131 C268.16860656 -0.00571938 312.50244942 0.00979496 356.83631713 0.03593346 C396.25044367 0.05904823 435.66453353 0.06443782 475.07866532 0.05420107 C485.16985913 0.05159919 495.26105295 0.04901422 505.35224682 0.04660314 C507.21558662 0.04615697 507.21558662 0.04615697 509.11656965 0.04570179 C542.02018498 0.03809186 574.9237973 0.04449465 607.82741129 0.05529916 C611.36669246 0.056447 614.90597362 0.05759018 618.44525479 0.05872599 C620.79326528 0.05948124 623.14127577 0.06024688 625.48928626 0.061023 C643.04349077 0.06668861 660.59768579 0.06534644 678.15189034 0.06079477 C698.10661681 0.0556943 718.06130771 0.0615072 738.0160253 0.08168907 C749.19281717 0.09270135 760.36953917 0.09544466 771.54633323 0.08640054 C779.00271795 0.08119945 786.45904262 0.08683078 793.91541471 0.10145388 C798.17002425 0.10949494 802.42449206 0.11271767 806.67910104 0.10288132 C810.54550839 0.09404376 814.41164235 0.09887419 818.27802454 0.11486075 C819.67199725 0.11819005 821.06599314 0.11643923 822.45995067 0.10913227 C824.34673736 0.09996857 826.23359003 0.11097968 828.12036037 0.12304783 C829.16687531 0.12347485 830.21339024 0.12390186 831.29161775 0.12434182 C834.60920913 0.5648194 836.4976029 1.4362073 839.12285477 3.50024599 C839.63522768 7.08685633 839.9456296 9.37828031 837.74785477 12.37524599 C834.52257153 14.60813439 832.39365452 14.62629398 828.49295586 14.62904716 C826.68164566 14.63395545 826.68164566 14.63395545 824.83374333 14.63896289 C823.47894248 14.6375526 822.12414172 14.63605057 820.76934105 14.63446707 C819.33566041 14.63641857 817.90198031 14.63880686 816.46830106 14.64159504 C812.49692667 14.64802341 808.52557244 14.64815441 804.55419383 14.64731763 C800.24562252 14.64748657 795.93705855 14.65338639 791.62849087 14.65855849 C783.06881756 14.66790487 774.50914943 14.67180995 765.94947166 14.67407745 C755.70276074 14.67703419 745.45605673 14.68572839 735.20934943 14.69449173 C710.44078065 14.71535752 685.67221067 14.72580877 660.90363515 14.73462134 C649.19393343 14.73882428 637.48423221 14.7440467 625.77453092 14.74930587 C585.71590212 14.76719674 545.65727318 14.78219474 505.59864098 14.78962606 C503.08276526 14.79010082 500.56688954 14.79057671 498.05101382 14.79105372 C496.17948575 14.79140829 496.17948575 14.79140829 494.27014904 14.79177002 C487.94842725 14.79297125 481.62670546 14.79418669 475.30498368 14.795412 C473.4231151 14.79577223 473.4231151 14.79577223 471.50322897 14.79613973 C430.80302032 14.80403722 390.10284077 14.82747799 349.40264484 14.85996795 C306.40361231 14.89423056 263.40459683 14.91397383 220.40555042 14.9172703 C215.68949109 14.91768787 210.97343176 14.91816743 206.25737244 14.91869348 C205.09608873 14.91881667 203.93480502 14.91893987 202.73833089 14.91906679 C184.01423595 14.92140314 165.2901747 14.93708715 146.56609179 14.95753533 C127.76245368 14.97774537 108.95885622 14.98329354 90.15520926 14.9737647 C78.97152317 14.96853108 67.78797198 14.97451456 56.60430518 14.99629937 C49.14454297 15.00973748 41.68487434 15.00879282 34.22511135 14.99589741 C29.96767466 14.9889539 25.71049715 14.98848942 21.45308287 15.0054575 C17.58523627 15.02074823 13.71785958 15.01786231 9.85002767 15.00004722 C8.45442599 14.99687939 7.05878936 15.00051656 5.66322761 15.01153896 C3.77668198 15.02547674 1.88999428 15.0125751 0.003452 14.99819064 C-1.04366639 14.99859082 -2.09078478 14.99899101 -3.16963404 14.99940332 C-6.59089588 14.36865877 -7.77516866 13.22466895 -9.87714523 10.50024599 C-10.37714523 7.50024599 -10.37714523 7.50024599 -9.87714523 4.50024599 C-6.87398544 0.60854185 -4.83601298 0.00021857 0 0 Z " fill="#AAE6D7" transform="translate(125.87714523077011,107.49975401163101)"/>
<path d="M0 0 C3 0.5625 3 0.5625 5.15616271 2.72202768 C7.29179329 6.01201405 7.50039164 7.68655255 7.50139666 11.57255709 C7.51141073 12.78852875 7.5214248 14.00450041 7.53174233 15.25731969 C7.52263537 16.60607151 7.51316261 17.95482091 7.50336456 19.30356789 C7.50753668 20.74275837 7.51346136 22.18194465 7.52098203 23.62112153 C7.53661593 27.59391196 7.52720877 31.56631566 7.51387022 35.53910008 C7.50375471 39.85429 7.51675056 44.16941904 7.52684355 48.48460042 C7.54131849 56.05339455 7.54083484 63.62207465 7.53065491 71.1908741 C7.51555839 82.44559901 7.52324243 93.70022728 7.53548814 104.95495148 C7.55658021 125.05236176 7.55471408 145.14972126 7.54317249 165.2471364 C7.53312234 182.83314252 7.53047782 200.41913 7.53526306 218.0051384 C7.53572137 219.75284625 7.53572137 219.75284625 7.53618894 221.53586133 C7.53743423 226.26515373 7.53870782 230.99444612 7.540028 235.72373849 C7.55227182 280.11349689 7.54115746 324.50322288 7.51964041 368.89297627 C7.50065462 408.36095987 7.50235769 447.82889185 7.52148438 487.296875 C7.54288563 531.60688169 7.5514061 575.91685975 7.53903532 620.22687089 C7.53775238 624.9470783 7.53650103 629.66728572 7.53526306 634.38749313 C7.5347886 636.13093531 7.5347886 636.13093531 7.53430455 637.90959854 C7.52974776 655.4891952 7.53508852 673.06877121 7.54518127 690.64836502 C7.55659473 710.62838418 7.55380939 730.60834448 7.5320583 750.58835627 C7.52027651 761.78114725 7.51959896 772.97381089 7.534643 784.16659867 C7.54357253 791.63106087 7.53810332 799.09542038 7.52062392 806.55986729 C7.51105476 810.82074424 7.50796603 815.08136712 7.52224785 819.34223659 C7.53508735 823.21201399 7.52980018 827.08130994 7.50952521 830.95105165 C7.50546834 832.34845835 7.50823439 833.74590415 7.51834896 835.14328013 C7.53104459 837.02986625 7.5169976 838.91657691 7.50139666 840.80314124 C7.50112562 841.85099224 7.50085458 842.89884324 7.50057533 843.9784473 C7 846.5625 7 846.5625 5.19131896 848.42245992 C1.79997242 850.18681785 -0.40479447 849.60837797 -4 848.5625 C-6.83526472 844.8949366 -7.37532939 842.14086476 -7.37719816 837.56641763 C-7.38884833 835.74714474 -7.38884833 835.74714474 -7.40073386 833.89111885 C-7.39419255 832.54589798 -7.38737671 831.20067842 -7.38031673 829.85546017 C-7.38374923 828.41998549 -7.38849535 826.98451345 -7.3944377 825.54904696 C-7.40699553 821.58662022 -7.40077586 817.62440761 -7.39160402 813.66197969 C-7.38491674 809.35795231 -7.39554897 805.05396276 -7.40399987 800.74994332 C-7.41639846 793.20072208 -7.41756548 785.65156297 -7.41144943 778.10233498 C-7.40237905 766.87664642 -7.41037367 755.65101556 -7.42174067 744.42533144 C-7.44143676 724.37946728 -7.44374943 704.33362894 -7.43854547 684.28775741 C-7.43399371 666.7462228 -7.43458071 649.20469842 -7.44038582 631.66316414 C-7.44114267 629.31296642 -7.44189865 626.96276871 -7.44265376 624.61257099 C-7.44379892 621.0713411 -7.44494879 617.5301112 -7.44611301 613.98888131 C-7.45682255 581.05360124 -7.46153851 548.1183246 -7.45364285 515.18304348 C-7.45319709 513.31961027 -7.45319709 513.31961027 -7.45274232 511.41853195 C-7.45029321 501.32932242 -7.44768171 491.24011294 -7.44505819 481.15090345 C-7.43495287 441.7836102 -7.44331474 402.41635958 -7.46655273 363.04907227 C-7.49260001 318.8507595 -7.50548019 274.65247242 -7.49836498 230.45415169 C-7.49764888 225.74544116 -7.4969745 221.03673063 -7.49632454 216.3280201 C-7.49615473 215.16855904 -7.49598492 214.00909798 -7.49580997 212.81450173 C-7.49350297 195.28031585 -7.50150293 177.74615374 -7.51461601 160.21197319 C-7.52949386 140.28212465 -7.53041529 120.35233199 -7.5125451 100.42248469 C-7.50294832 89.25878446 -7.50448553 78.09521438 -7.52177979 66.93152272 C-7.5322149 59.48517976 -7.52824615 52.03893664 -7.51229975 44.59260363 C-7.50360966 40.3428918 -7.50138399 36.09343626 -7.51656907 31.84373694 C-7.53023522 27.98292547 -7.52572476 24.12259234 -7.50628388 20.26180952 C-7.50252679 18.86876719 -7.50557099 17.47568699 -7.51599697 16.0826786 C-7.52912755 14.19956859 -7.51542757 12.31632779 -7.50024599 10.4332332 C-7.50019869 9.38803387 -7.5001514 8.34283454 -7.50010267 7.26596251 C-6.66723088 2.76361168 -4.42173206 0.82907476 0 0 Z " fill="#FAFDFD" transform="translate(110,130.4375)"/>
<path d="M0 0 C1.2095312 -0.00551949 2.41906241 -0.01103897 3.66524607 -0.01672572 C5.01710508 -0.01274954 6.36896355 -0.00859059 7.7208215 -0.00426924 C9.15536622 -0.00696051 10.58990952 -0.01052713 12.02445012 -0.01489371 C15.99358862 -0.02439743 19.9626359 -0.02133638 23.93177903 -0.01633817 C28.23965935 -0.01308469 32.54751962 -0.02134305 36.85539365 -0.02815652 C44.41451036 -0.03848787 51.97360143 -0.04129489 59.5327245 -0.03924429 C70.77322151 -0.03620243 82.01369002 -0.04450014 93.2541815 -0.05499355 C114.49459502 -0.07436737 135.73499891 -0.07996302 156.97542022 -0.08110766 C173.37357453 -0.08202559 189.77172505 -0.08613623 206.16987813 -0.09250891 C210.88446855 -0.09430391 215.59905898 -0.09608353 220.31364942 -0.09785867 C221.48559968 -0.09830076 222.65754995 -0.09874286 223.86501386 -0.09919835 C256.84387097 -0.11151216 289.82272676 -0.11939893 322.80158627 -0.1185118 C324.04576475 -0.11848064 325.28994323 -0.11844948 326.57182408 -0.11841738 C332.87831319 -0.11825116 339.18480229 -0.11805307 345.49129139 -0.11784796 C346.7438577 -0.11780807 347.99642402 -0.11776818 349.28694688 -0.11772708 C351.81994239 -0.11764621 354.3529379 -0.11756261 356.88593341 -0.1174763 C396.30661441 -0.11625044 435.72726102 -0.13126828 475.14793217 -0.15862143 C519.40227169 -0.18931566 563.65658861 -0.20655555 607.91093946 -0.20469499 C612.62615859 -0.20454572 617.34137773 -0.20444831 622.05659688 -0.20438635 C623.21766666 -0.20436304 624.37873645 -0.20433974 625.57499017 -0.20431572 C644.29232146 -0.20425407 663.00962299 -0.21704768 681.72694542 -0.23425088 C700.52488059 -0.25117133 719.32277204 -0.25320943 738.1207106 -0.24003224 C749.29974537 -0.23261913 760.47864767 -0.23637116 771.65766852 -0.25591692 C779.11557574 -0.26785896 786.57338637 -0.26539067 794.03128904 -0.25097592 C798.28682463 -0.24316376 802.54210268 -0.24180106 806.79762076 -0.25789063 C810.66490605 -0.27238505 814.53171795 -0.26865166 818.39898171 -0.25004289 C819.79325372 -0.24658476 821.18756223 -0.24990731 822.58179718 -0.26064531 C824.46895832 -0.27421245 826.35625604 -0.2608593 828.2434082 -0.24609566 C829.29014688 -0.2462721 830.33688555 -0.24644854 831.41534358 -0.24663033 C835.00400569 0.38655719 836.69309382 1.69407615 839.24705327 4.25299966 C839.74705327 7.31549966 839.74705327 7.31549966 839.24705327 10.25299966 C837.7019886 12.28967581 836.5255917 13.11373044 834.24705327 14.25299966 C832.37242394 14.34991499 830.4942864 14.38122544 828.61715436 14.3829515 C827.40961423 14.38647992 826.20207409 14.39000834 824.95794183 14.39364368 C823.60314099 14.39252235 822.24834023 14.39130905 820.89353955 14.39001405 C819.45985882 14.39226869 818.02617872 14.39495959 816.59249955 14.39804989 C812.62112611 14.40531383 808.64977152 14.40627915 804.67839233 14.40627266 C800.36982029 14.40733876 796.06125675 14.41412517 791.75268936 14.42017937 C783.1930169 14.43127402 774.63334854 14.43690832 766.07367016 14.44088824 C755.82695851 14.44588986 745.58025486 14.4566161 735.33354792 14.46736998 C710.56498069 14.49302138 685.79641035 14.5080387 661.02783365 14.52088045 C652.82749001 14.52513282 644.62714659 14.52969848 636.42680323 14.53446376 C592.85881734 14.55971939 549.29083108 14.58177548 505.72283947 14.59419191 C495.62495369 14.59711341 485.52706793 14.60008089 475.42918217 14.60309732 C473.54731359 14.60365368 473.54731359 14.60365368 471.62742746 14.60422129 C430.9272116 14.61638384 390.22703891 14.64733885 349.52684333 14.68901884 C307.71196373 14.73176251 265.89710693 14.75842725 224.08220488 14.76366662 C218.18199354 14.76440713 212.28178224 14.76531782 206.38157094 14.7663244 C205.22028722 14.76651502 204.05900351 14.76670563 202.86252939 14.76690202 C184.13842511 14.77042196 165.41437473 14.79074901 146.69029029 14.81712104 C127.88664709 14.84320678 109.08306647 14.8510181 90.27940775 14.84001975 C79.09569193 14.83402312 67.91218767 14.84205819 56.72850368 14.86985058 C49.26872494 14.88702364 41.80909147 14.88622084 34.34930984 14.8704829 C30.09181967 14.86202174 25.83473497 14.86166117 21.57728137 14.88309436 C17.70934504 14.90241131 13.8421417 14.89900697 9.97422617 14.87694087 C8.57862309 14.87305474 7.18296585 14.87767553 5.78742611 14.89152788 C3.90090771 14.90905078 2.01416554 14.89302347 0.1276505 14.87514281 C-0.91946789 14.87569898 -1.96658629 14.87625514 -3.04543554 14.87682816 C-5.75294673 14.25299966 -5.75294673 14.25299966 -8.12439031 11.94458447 C-9.75294673 9.25299966 -9.75294673 9.25299966 -9.69044673 5.56549966 C-8.12129101 0.02114943 -5.18597373 0.00288878 0 0 Z " fill="#FCFEFD" transform="translate(131.7529467344284,979.747000336647)"/>
<path d="M0 0 C0.99 0.66 1.98 1.32 3 2 C2.01 2.33 1.02 2.66 0 3 C-0.33 278.55 -0.66 554.1 -1 838 C-1.99 838.33 -2.98 838.66 -4 839 C-4.17823843 829.47936002 -4.34370592 819.95852275 -4.5 810.4375 C-4.51781588 809.35281811 -4.51781588 809.35281811 -4.53599167 808.24622345 C-4.94210632 783.28843517 -5.08965729 758.33594658 -5.0625 733.375 C-5.06164398 732.58249218 -5.06078796 731.78998436 -5.05990601 730.97346115 C-5.04868389 721.31561576 -5.02886699 711.65780941 -5 702 C-4.67 702 -4.34 702 -4 702 C-4 649.2 -4 596.4 -4 542 C-4.66 542 -5.32 542 -6 542 C-6 494.48 -6 446.96 -6 398 C-5.67 398 -5.34 398 -5 398 C-4.67 416.48 -4.34 434.96 -4 454 C-3.67 305.17 -3.34 156.34 -3 3 C-2.01 2.67 -1.02 2.34 0 2 C0 1.34 0 0.68 0 0 Z " fill="#3ABD98" transform="translate(104,130)"/>
<path d="M0 0 C1.2117785 -0.00975785 2.42355699 -0.0195157 3.67205605 -0.02956924 C5.02126347 -0.02017276 6.37046839 -0.01041124 7.71967083 -0.00032526 C9.1553848 -0.00419284 10.59109493 -0.009814 12.02679595 -0.01703486 C15.99461417 -0.03185273 19.96204053 -0.02158372 23.92984673 -0.00742287 C28.23793111 0.0035829 32.54595887 -0.00851554 36.85403883 -0.01773036 C44.41197529 -0.03066847 51.96979468 -0.02864508 59.52773148 -0.01695067 C70.76642709 0.00039156 82.00503015 -0.00505235 93.24373047 -0.01511758 C113.31289488 -0.03233687 133.38200478 -0.02675138 153.45116809 -0.01176039 C171.01430243 0.00127465 188.57741783 0.0064906 206.14055687 0.00392145 C207.30408758 0.00376103 208.4676183 0.00360062 209.66640752 0.00343534 C214.3891818 0.00277179 219.11195608 0.00206938 223.83473036 0.00131 C268.16860656 -0.00571938 312.50244942 0.00979496 356.83631713 0.03593346 C396.25044367 0.05904823 435.66453353 0.06443782 475.07866532 0.05420107 C485.16985913 0.05159919 495.26105295 0.04901422 505.35224682 0.04660314 C507.21558662 0.04615697 507.21558662 0.04615697 509.11656965 0.04570179 C542.02018498 0.03809186 574.9237973 0.04449465 607.82741129 0.05529916 C611.36669246 0.056447 614.90597362 0.05759018 618.44525479 0.05872599 C620.79326528 0.05948124 623.14127577 0.06024688 625.48928626 0.061023 C643.04349077 0.06668861 660.59768579 0.06534644 678.15189034 0.06079477 C698.10661681 0.0556943 718.06130771 0.0615072 738.0160253 0.08168907 C749.19281717 0.09270135 760.36953917 0.09544466 771.54633323 0.08640054 C779.00271795 0.08119945 786.45904262 0.08683078 793.91541471 0.10145388 C798.17002425 0.10949494 802.42449206 0.11271767 806.67910104 0.10288132 C810.54550839 0.09404376 814.41164235 0.09887419 818.27802454 0.11486075 C819.67199725 0.11819005 821.06599314 0.11643923 822.45995067 0.10913227 C824.34673736 0.09996857 826.23359003 0.11097968 828.12036037 0.12304783 C829.16687531 0.12347485 830.21339024 0.12390186 831.29161775 0.12434182 C834.6104422 0.56498311 836.50190597 1.42733094 839.12285477 3.50024599 C839.48363817 6.92768827 839.68224455 9.38146642 838.12285477 12.50024599 C837.46285477 12.50024599 836.80285477 12.50024599 836.12285477 12.50024599 C835.99785477 7.75024599 835.99785477 7.75024599 837.12285477 5.50024599 C835.80285477 4.84024599 834.48285477 4.18024599 833.12285477 3.50024599 C833.12285477 2.84024599 833.12285477 2.18024599 833.12285477 1.50024599 C754.09201367 1.5784741 675.06117382 1.65792589 596.03034073 1.74391359 C594.86122497 1.74518527 593.69210921 1.74645695 592.4875657 1.74776717 C567.08138613 1.77540957 541.67520681 1.80327257 516.26902774 1.83136293 C503.81039135 1.84513648 491.35175491 1.85886128 478.89311844 1.87256044 C477.65331432 1.87392453 476.4135102 1.87528861 475.13613625 1.87669403 C434.9285654 1.92090919 394.72099204 1.96190238 354.51341614 2.00123012 C313.20537206 2.04165122 271.89733265 2.08531207 230.58929638 2.1330671 C224.75888467 2.13980595 218.92847292 2.14650766 213.09806114 2.15318674 C211.95051821 2.15450247 210.80297527 2.15581819 209.6206583 2.15717379 C191.12580227 2.17828362 172.63094447 2.19596391 154.13608374 2.2123713 C135.55619687 2.22892696 116.97631667 2.2490728 98.3964377 2.2729144 C87.34897339 2.2869805 76.30151429 2.29826287 65.25404343 2.30561037 C57.88117336 2.31078474 50.50831322 2.31953598 43.13545062 2.33123373 C38.93014471 2.33780232 34.72485309 2.3427796 30.51954173 2.34340798 C26.69552499 2.34400992 22.87154265 2.34915825 19.04753626 2.35796661 C17.02074711 2.36145325 14.99395137 2.36006016 12.96715984 2.35848179 C2.82085365 1.70605376 2.82085365 1.70605376 -5.87714523 5.50024599 C-5.87714523 7.81024599 -5.87714523 10.12024599 -5.87714523 12.50024599 C271.32285477 12.83024599 548.52285477 13.16024599 834.12285477 13.50024599 C834.12285477 13.83024599 834.12285477 14.16024599 834.12285477 14.50024599 C754.09631279 14.56877509 674.06976727 14.63237695 594.04320389 14.66961855 C592.26776293 14.67044689 592.26776293 14.67044689 590.45645447 14.67129197 C564.73563969 14.68326243 539.0148246 14.69434332 513.29400904 14.70450731 C500.68129349 14.70949684 488.06857802 14.71468303 475.45586258 14.71997255 C473.57314534 14.72075711 473.57314534 14.72075711 471.65239341 14.72155751 C430.93882075 14.73861565 390.22527023 14.76867038 349.51171099 14.80543487 C307.68787227 14.84313352 265.86404582 14.86778039 224.0401904 14.87590595 C218.1385434 14.87705864 212.23689644 14.87836119 206.33524948 14.87975496 C205.17367277 14.88002465 204.01209606 14.88029434 202.81532005 14.88057221 C184.08553368 14.88530679 165.35578513 14.90387976 146.6260142 14.92757412 C127.81541353 14.95107736 109.00485051 14.96012941 90.19423565 14.9542515 C79.00611361 14.9511995 67.81812894 14.95940612 56.63003159 14.98343616 C49.16724616 14.99837581 41.70455123 14.99894315 34.24175968 14.98757324 C29.98255722 14.98150304 25.72361551 14.98191915 21.46444044 14.99977872 C17.59497251 15.01588178 13.72597051 15.01380804 9.85651033 14.99680589 C8.46031427 14.99393271 7.06408471 14.99786634 5.6679316 15.00918697 C3.78058899 15.0235284 1.89309862 15.01102583 0.00575334 14.99703997 C-1.04181253 14.9976639 -2.08937841 14.99828782 -3.1686887 14.99893065 C-6.59089313 14.36882976 -7.77484782 13.22541127 -9.87714523 10.50024599 C-10.37714523 7.50024599 -10.37714523 7.50024599 -9.87714523 4.50024599 C-6.87398544 0.60854185 -4.83601298 0.00021857 0 0 Z " fill="#97EFD7" transform="translate(125.87714523077011,107.49975401163101)"/>
<path d="M0 0 C0.94875 0.144375 1.8975 0.28875 2.875 0.4375 C3.535 1.4275 4.195 2.4175 4.875 3.4375 C3.885 3.7675 2.895 4.0975 1.875 4.4375 C1.215 4.1075 0.555 3.7775 -0.125 3.4375 C-1.115 3.7675 -2.105 4.0975 -3.125 4.4375 C-3.98851085 8.16592232 -4.24976927 11.60814553 -4.2491985 15.43177301 C-4.25144579 16.64421309 -4.25369308 17.85665317 -4.25600848 19.10583386 C-4.25344284 20.45058798 -4.25078592 21.79534193 -4.24804783 23.14009571 C-4.24878745 24.57507212 -4.24996602 26.01004837 -4.25154433 27.4450241 C-4.25461989 31.40598741 -4.2514328 35.36692514 -4.24726619 39.32788655 C-4.24383789 43.63032082 -4.24620166 47.93275245 -4.24784368 52.23518723 C-4.24991992 59.78150196 -4.24826939 67.32780881 -4.24420547 74.87412262 C-4.2381793 86.09527885 -4.23786885 97.31643011 -4.23874746 108.53758766 C-4.24006254 127.41183782 -4.2367155 146.28608449 -4.23073006 165.16033363 C-4.22481714 183.85369191 -4.22096494 202.54704874 -4.21987724 221.24040794 C-4.2198085 222.40182285 -4.21973976 223.56323775 -4.21966894 224.75984704 C-4.21933062 230.65785989 -4.21902923 236.55587273 -4.21874207 242.45388558 C-4.21664052 284.25156599 -4.2099 326.04924449 -4.20043945 367.84692383 C-4.1912581 408.45792633 -4.18417298 449.06892831 -4.17993164 489.67993164 C-4.17980011 490.93129286 -4.17966859 492.18265409 -4.17953308 493.47193535 C-4.17821458 506.03838638 -4.17693876 518.60483742 -4.17569422 531.17128846 C-4.17315787 556.77159692 -4.17033661 582.37190534 -4.16734314 607.97221375 C-4.1671372 609.73788365 -4.1671372 609.73788365 -4.16692711 611.53922365 C-4.15772329 690.17198322 -4.14187772 768.80474174 -4.125 847.4375 C-6.125 846.4375 -6.125 846.4375 -7.125 843.4375 C-7.21892161 841.52342681 -7.25244674 839.60619027 -7.25380117 837.68981463 C-7.25870946 835.87728361 -7.25870946 835.87728361 -7.26371691 834.02813581 C-7.26230671 832.67760905 -7.26080469 831.32708239 -7.25922108 829.97655582 C-7.26117316 828.54341511 -7.26356168 827.11027494 -7.26634905 825.67713562 C-7.27277009 821.71192244 -7.272909 817.74672947 -7.27207164 813.78151208 C-7.27224072 809.47788129 -7.27814215 805.17425784 -7.2833125 800.87063068 C-7.29265439 792.32290675 -7.29656321 783.775188 -7.29883147 775.2274596 C-7.30178934 764.99424502 -7.31048419 754.76103734 -7.31924575 744.52782637 C-7.3401063 719.79324047 -7.35056177 695.05865337 -7.35937535 670.32406072 C-7.36357884 658.63006858 -7.36880117 646.93607695 -7.37405988 635.24208524 C-7.39194986 595.23549343 -7.40694797 555.22890147 -7.41438007 515.22230625 C-7.41485484 512.70996864 -7.41533072 510.19763104 -7.41580774 507.68529343 C-7.4161623 505.81640403 -7.4161623 505.81640403 -7.41652403 503.90975928 C-7.41772526 497.5969847 -7.4189407 491.28421012 -7.42016602 484.97143555 C-7.42040617 483.71863422 -7.42064632 482.4658329 -7.42089374 481.1750679 C-7.42879172 440.53004409 -7.45223393 399.88504942 -7.48472196 359.24003834 C-7.51898449 316.29685529 -7.53872781 273.35368931 -7.54202431 230.41049236 C-7.54244188 225.70062728 -7.54292144 220.99076221 -7.54344749 216.28089714 C-7.54357069 215.12114308 -7.54369388 213.96138902 -7.5438208 212.7664909 C-7.54615709 194.06755639 -7.5618407 175.36865562 -7.58228934 156.66973316 C-7.6024992 137.89198185 -7.60804762 119.11427125 -7.59851871 100.33651108 C-7.59328511 89.16837229 -7.59926848 78.0003686 -7.62105338 66.83224913 C-7.6344915 59.38288576 -7.63354683 51.93361611 -7.62065142 44.48425196 C-7.61370795 40.23277214 -7.61324333 35.98155187 -7.63021151 31.7300945 C-7.64550233 27.8676653 -7.64261624 24.00570666 -7.62480123 20.14329218 C-7.62163342 18.74965398 -7.62527049 17.35598079 -7.63629298 15.96238259 C-7.65023093 14.07847954 -7.63732901 12.19443423 -7.62294465 10.31053454 C-7.62334484 9.26488773 -7.62374502 8.21924092 -7.62415733 7.14190784 C-6.77799748 2.55745881 -4.53865473 0.63541166 0 0 Z " fill="#CDFAF2" transform="translate(110.125,130.5625)"/>
<path d="M0 0 C5.89148284 7.2510558 4.13761863 19.28034693 4.11301708 28.07987881 C4.11265511 29.50697365 4.11273452 30.93406866 4.11321303 32.36116347 C4.11324554 36.28161338 4.10700436 40.20203191 4.09972971 44.12247414 C4.09292223 48.38796714 4.09195738 52.65346215 4.09023982 56.91895968 C4.08641496 64.39427886 4.07881754 71.86958686 4.06874657 79.34490013 C4.05377518 90.46052265 4.04455029 101.57614478 4.03641743 112.69177414 C4.02082134 133.69550325 3.99829322 154.6992215 3.97351011 175.70294153 C3.95439904 191.9150483 3.93691249 208.12715603 3.92057228 224.33926582 C3.91585261 229.00345773 3.91112543 233.66764963 3.90639621 238.33184153 C3.90522105 239.49129981 3.90404588 240.65075809 3.90283511 241.84535147 C3.86971781 274.45770278 3.83437667 307.07005108 3.7946043 339.68239498 C3.79310586 340.91200728 3.79160742 342.14161957 3.79006358 343.40849285 C3.78246425 349.64093195 3.77484862 355.87337102 3.76722922 362.1058101 C3.76495989 363.96255421 3.76495989 363.96255421 3.76264472 365.85680831 C3.75958519 368.35999682 3.7565243 370.86318533 3.75346206 373.36637383 C3.70583706 412.34491125 3.66635898 451.32344976 3.63305664 490.30200195 C3.595654 534.0718349 3.55154426 577.84165407 3.49788028 621.61147028 C3.49218882 626.27346167 3.48652313 630.93545309 3.48087502 635.59744453 C3.47948021 636.74538923 3.47808541 637.89333393 3.47664833 639.07606484 C3.45431292 657.58722022 3.43839314 676.09837586 3.42466793 694.60953939 C3.41071186 713.19160952 3.38933606 731.77365967 3.36034616 750.35571253 C3.34331388 761.40872294 3.33187228 772.46170669 3.32829637 783.51472983 C3.32536533 790.88460334 3.3152632 798.25444379 3.29916824 805.62430026 C3.29018629 809.83184492 3.28445816 814.03932848 3.28739997 818.24688315 C3.2900077 822.06699113 3.2835891 825.88696842 3.26966068 829.70705093 C3.26626234 831.08763175 3.2662835 832.46822582 3.26996074 833.84880593 C3.27444234 835.71039197 3.26560671 837.57199625 3.25595969 839.4335627 C3.25480007 840.46819627 3.25364044 841.50282984 3.25244568 842.56881594 C3 845 3 845 1 847 C0.99959982 846.2713992 0.99919963 845.54279841 0.99878732 844.7921188 C0.95513103 765.50152284 0.90778183 686.21092939 0.84101868 606.92034912 C0.84002311 605.73672181 0.83902754 604.55309451 0.83800181 603.33359971 C0.81634539 577.61278396 0.79402285 551.89196884 0.77101372 526.17115428 C0.75973479 513.5584389 0.74860312 500.94572339 0.73754883 488.33300781 C0.73644626 487.07786299 0.7353437 485.82271816 0.73420772 484.52953864 C0.6985125 443.8159809 0.67254924 403.102424 0.65161031 362.38885622 C0.63004913 320.56500419 0.59871465 278.74117067 0.55500887 236.91733563 C0.54884625 231.01568876 0.54279584 225.11404177 0.53681374 219.21239471 C0.53563285 218.050818 0.53445197 216.88924129 0.53323531 215.69246528 C0.51448326 196.96269646 0.50609354 178.2329365 0.50153876 159.50315943 C0.49674463 140.69254917 0.48112934 121.8819729 0.45433434 103.07138088 C0.43872983 91.88329397 0.43155595 80.69527404 0.43623071 69.50717682 C0.43853339 62.04439166 0.430074 54.58167005 0.41267589 47.11890491 C0.4030601 42.85975368 0.39830144 38.60074288 0.40660437 34.34158567 C0.41405589 30.47217186 0.40789684 26.60303552 0.39055933 22.73365556 C0.38674574 21.33746713 0.38802896 19.94125384 0.39484399 18.54507683 C0.40333633 16.6576958 0.39172718 14.77025584 0.37900752 12.88289857 C0.37822762 11.8353327 0.37744771 10.78776682 0.37664418 9.70845653 C-0.05735566 6.58755421 -0.78615771 5.21868221 -3 3 C-6.10197397 2.19053578 -6.10197397 2.19053578 -9 2 C-5.96271914 -1.03728086 -4.06215635 -1.35405212 0 0 Z " fill="#57C4A7" transform="translate(116,129)"/>
<path d="M0 0 C0.66 0 1.32 0 2 0 C3.32464713 2.64929427 3.12904012 4.63627395 3.13406253 7.60490948 C3.13851191 8.80686824 3.1429613 10.00882699 3.14754552 11.24720874 C3.14746661 12.59570419 3.14729641 13.94419962 3.14704514 15.29269505 C3.15039996 16.71974671 3.15419105 18.1467974 3.15838152 19.57384685 C3.16869871 23.52684425 3.17273487 27.47982773 3.17580948 31.43283651 C3.18022301 35.72156925 3.19036414 40.01028894 3.19978356 44.29901308 C3.21757461 52.81942495 3.22995592 61.33983707 3.24072007 69.86026037 C3.25385274 80.06022929 3.27272184 90.26018553 3.29170035 100.46014496 C3.33728853 125.11785036 3.37270049 149.77556735 3.40700389 174.43329056 C3.42329587 186.0928214 3.44084887 197.75235025 3.45855594 209.41187901 C3.51911568 249.30514705 3.57754777 289.19841736 3.62871933 329.09169865 C3.63193853 331.59731109 3.63515791 334.10292353 3.63837744 336.60853597 C3.64160307 339.12028964 3.64482855 341.63204331 3.64805388 344.14379698 C3.65452535 349.18302286 3.66100145 354.22224874 3.66748047 359.26147461 C3.6690847 360.51091534 3.67068894 361.76035607 3.67234178 363.04765864 C3.72445144 403.56742007 3.78888011 444.08714881 3.86070609 484.60687978 C3.93655677 527.42256074 4.00151849 570.23824442 4.05390286 613.05396074 C4.0596911 617.75185459 4.06552353 622.44974838 4.07138824 627.14764214 C4.07282716 628.30443928 4.07426608 629.46123642 4.07574861 630.65308803 C4.09918606 649.29065315 4.1325439 667.92818796 4.16941465 686.56573078 C4.20620606 705.29102344 4.23187362 724.0163057 4.24618712 742.74162925 C4.25501925 753.87315179 4.27224573 765.0045879 4.30141776 776.13607611 C4.32006559 783.56743181 4.32781878 790.99874682 4.32663916 798.4301257 C4.32627751 802.66721939 4.3307067 806.90416031 4.3483735 811.14122046 C4.36435262 814.99640536 4.36645354 818.85134002 4.35752185 822.70654542 C4.35636553 824.74513006 4.36997471 826.78370681 4.38419682 828.82224217 C4.32286011 842.26398382 4.32286011 842.26398382 1 848 C-2 849.5 -2 849.5 -5 850 C-5.99 850.33 -6.98 850.66 -8 851 C-8.495 849.515 -8.495 849.515 -9 848 C-9.99 847.67 -10.98 847.34 -12 847 C-11.67 845.68 -11.34 844.36 -11 843 C-10.505 844.485 -10.505 844.485 -10 846 C-6.37 846 -2.74 846 1 846 C1.03361094 809.08372268 1.05162819 772.16744078 1.06185675 735.25115043 C1.06249677 732.94910752 1.0631562 730.64706462 1.06381607 728.34502172 C1.08834252 641.25135159 1.01801403 554.15785077 0.50451323 259.45242099 C0.49848048 256.25785679 0.49245436 253.06329257 0.48642803 249.86872836 C0.33266546 168.36510843 0.17427264 86.86149797 0 0 Z " fill="#48C19F" transform="translate(982,129)"/>
<path d="M0 0 C1.18722656 0.18175781 1.18722656 0.18175781 2.3984375 0.3671875 C3.59339844 0.52574219 3.59339844 0.52574219 4.8125 0.6875 C5.45960938 0.87054688 6.10671875 1.05359375 6.7734375 1.2421875 C7.1034375 1.9021875 7.4334375 2.5621875 7.7734375 3.2421875 C4.8034375 2.7471875 4.8034375 2.7471875 1.7734375 2.2421875 C-1.58076341 5.7468873 -1.6572118 8.95949628 -1.62414742 13.58076096 C-1.6306861 14.32591141 -1.63722478 15.07106186 -1.64396161 15.83879262 C-1.66233754 18.35122397 -1.65932354 20.86318075 -1.65652466 23.37567139 C-1.66537575 25.1913812 -1.67553852 27.00708502 -1.68690288 28.82278085 C-1.71442427 33.82939529 -1.72326795 38.8358984 -1.7291863 43.84257865 C-1.73882073 49.24580029 -1.76565761 54.64893918 -1.79043579 60.05210876 C-1.83119792 69.45511141 -1.8609989 78.85809864 -1.88357925 88.2611618 C-1.91671492 102.03064674 -1.96699328 115.80002931 -2.02128445 129.56944516 C-2.1098504 152.13920192 -2.18537497 174.70898018 -2.25244141 197.27880859 C-2.34379885 228.00166214 -2.44941978 258.72445178 -2.56008798 289.44724262 C-2.59767516 299.88450164 -2.63506854 310.32176137 -2.67249158 320.75902098 C-2.68179665 323.35219505 -2.69111361 325.94536907 -2.70044252 328.53854305 C-2.76055437 345.24820458 -2.81879335 361.95787123 -2.87516475 378.6675458 C-3.16155808 463.52695472 -3.61212565 548.38453523 -4.2265625 633.2421875 C-4.5565625 633.2421875 -4.8865625 633.2421875 -5.2265625 633.2421875 C-5.27796193 573.33173226 -5.32566297 513.42127453 -5.35359192 453.51080322 C-5.35400609 452.62463054 -5.35442026 451.73845785 -5.35484698 450.82543145 C-5.36382494 431.56822151 -5.37213559 412.31101133 -5.37975849 393.05380081 C-5.38350062 383.61057418 -5.38739026 374.16734762 -5.39135742 364.72412109 C-5.3917497 363.78438808 -5.39214198 362.84465506 -5.39254614 361.87644528 C-5.4053386 331.39675735 -5.4278788 300.91708607 -5.45545416 270.43740823 C-5.48373137 239.12522004 -5.50221405 207.81304106 -5.50830747 176.50084031 C-5.50917198 172.08195311 -5.51014889 167.66306594 -5.51119423 163.24417877 C-5.5113965 162.37444681 -5.51159877 161.50471485 -5.51180717 160.60862738 C-5.51535741 146.58752039 -5.52928527 132.56644183 -5.5470586 118.54534645 C-5.56469062 104.4620232 -5.57147391 90.37872824 -5.56706663 76.29539433 C-5.56477851 67.92006547 -5.57092486 59.54483987 -5.58895513 51.16952958 C-5.60147864 44.92779722 -5.59847413 38.6861654 -5.58925918 32.44442931 C-5.58798398 29.91005176 -5.59185536 27.3756657 -5.60121205 24.84130511 C-5.6131389 21.41326308 -5.60683126 17.98573792 -5.59570599 14.55770493 C-5.60358703 13.5590797 -5.61146807 12.56045447 -5.61958793 11.53156787 C-5.61284605 10.62095928 -5.60610417 9.71035069 -5.59915799 8.77214789 C-5.59962593 7.98787732 -5.60009387 7.20360674 -5.60057599 6.39557038 C-4.99961595 2.93554265 -3.62688027 0.39450277 0 0 Z " fill="#89E7CD" transform="translate(974.2265625,126.7578125)"/>
<path d="M0 0 C0.66 0 1.32 0 2 0 C1.83769384 0.53985545 1.67538768 1.0797109 1.50816316 1.63592561 C0.90894786 4.42359238 0.87239533 6.97220338 0.86938947 9.82519031 C0.86570876 11.02534917 0.86202805 12.22550804 0.85823581 13.46203536 C0.85918148 14.79809907 0.86021783 16.13416271 0.8613348 17.47022629 C0.85888791 18.89209972 0.8560042 20.31397245 0.85272202 21.73584419 C0.84492958 25.66508183 0.84337915 29.59430149 0.8427946 33.5235459 C0.84106967 37.78986088 0.83358664 42.05616626 0.82681805 46.32247567 C0.8157444 53.80691252 0.80838279 61.29134597 0.80341911 68.77578926 C0.79602161 79.90496108 0.78294045 91.03412109 0.76867336 102.16328596 C0.7448383 120.8824314 0.72564445 139.60157895 0.70907402 158.32073212 C0.69264649 176.86140989 0.67416943 195.40208373 0.65294075 213.94275665 C0.65162314 215.09453587 0.65030554 216.24631508 0.648948 217.4329967 C0.64224614 223.28203822 0.63550752 229.1310797 0.62875474 234.98012117 C0.58096144 276.43449755 0.53778512 317.88887759 0.49731445 359.34326172 C0.4579814 399.62158474 0.41656297 439.89990473 0.37231445 480.17822266 C0.37095192 481.41925701 0.36958939 482.66029137 0.36818558 483.93893283 C0.35450048 496.40163973 0.34077292 508.86434659 0.32701423 521.3270534 C0.2989859 546.71618393 0.27124107 572.10531477 0.2436676 597.4944458 C0.2423994 598.66185794 0.2411312 599.82927007 0.23982458 601.03205833 C0.15513468 679.0213673 0.07705407 757.01068316 0 835 C-0.33 835 -0.66 835 -1 835 C-1.00173625 833.79051866 -1.0034725 832.58103732 -1.00526136 831.33490503 C-1.08270164 777.42156005 -1.16108854 723.50821653 -1.2436676 669.59487915 C-1.24493928 668.76448346 -1.24621096 667.93408777 -1.24752118 667.07852858 C-1.27523548 648.98461736 -1.3031 630.89070638 -1.33111694 612.79679563 C-1.34487711 603.9096151 -1.35860445 595.02243452 -1.37231445 586.13525391 C-1.37367854 585.2513823 -1.37504262 584.3675107 -1.37644804 583.45685511 C-1.41713174 557.08624406 -1.4560761 530.71563095 -1.49363756 504.34501528 C-1.54581728 467.71941239 -1.60092284 431.09381489 -1.65952825 394.46822171 C-1.67297008 386.06167611 -1.68624567 377.65513031 -1.69910383 369.24858379 C-1.8050384 300.05415022 -1.92851073 230.86034464 -2.30698346 161.66678414 C-2.32841275 157.73697033 -2.34950279 153.80715484 -2.37049067 149.87733865 C-2.49225674 127.1225435 -2.61683666 104.36779476 -2.77967303 81.61325154 C-2.83981161 73.17627704 -2.89361532 64.73927876 -2.94241609 56.3022311 C-2.97570344 50.63079021 -3.01765023 44.95951224 -3.06702576 39.2881897 C-3.09453449 35.88787057 -3.11355661 32.48754421 -3.13008846 29.08715566 C-3.13929393 27.54567979 -3.15198209 26.0042197 -3.16861003 24.46280603 C-3.33599743 8.63365407 -3.33599743 8.63365407 -1 1 C-0.67 0.67 -0.34 0.34 0 0 Z " fill="#39BE97" transform="translate(969,127)"/>
<path d="M0 0 C1 3 1 3 0 6 C0.15688424 8.12816413 0.15688424 8.12816413 1 10 C4.17032032 11.05677344 6.40280785 11.12712336 9.73305196 11.13061053 C11.54066995 11.13613159 11.54066995 11.13613159 13.38480547 11.14176419 C14.73162548 11.14081846 16.07844543 11.13978209 17.42526531 11.1386652 C18.85450038 11.14111134 20.28373475 11.14399483 21.71296814 11.14727798 C25.66730771 11.15507952 29.62162942 11.15662126 33.57597574 11.1572054 C37.86776331 11.15892884 42.1595413 11.16641102 46.45132333 11.17318195 C53.98203482 11.18426056 61.51274294 11.19161914 69.04346085 11.19658089 C80.24145825 11.20397555 91.43944389 11.21705603 102.63743438 11.23132664 C121.47194689 11.25516687 140.30646148 11.27435853 159.14098167 11.29092598 C177.79692051 11.30735144 196.45285544 11.32582763 215.10878944 11.34705925 C216.84695898 11.34903566 216.84695898 11.34903566 218.62024305 11.351052 C224.50479375 11.35775383 230.38934442 11.36449246 236.27389506 11.37124526 C277.98394384 11.41904326 319.69399625 11.46221822 361.40405273 11.50268555 C401.9317247 11.54201627 442.45939365 11.58343413 482.98706055 11.62768555 C484.86001479 11.62972934 484.86001479 11.62972934 486.7708065 11.63181442 C499.30981002 11.64549948 511.84881349 11.65922704 524.38781693 11.67298577 C549.93256067 11.70101438 575.47730471 11.72875917 601.02204895 11.7563324 C602.19662582 11.7576006 603.37120269 11.7588688 604.5813728 11.76017542 C683.05424363 11.8448706 761.52712133 11.92294884 840 12 C840 11.34 840 10.68 840 10 C840.99 10 841.98 10 843 10 C843.33 7.36 843.66 4.72 844 2 C844.66 2.33 845.32 2.66 846 3 C846.36768802 8.51532033 846.36768802 8.51532033 844.625 10.8125 C841.43393854 13.14442953 839.28598862 13.12635111 835.37010109 13.12995183 C834.16256096 13.13348025 832.95502082 13.13700867 831.71088856 13.14064401 C830.35608773 13.13952269 829.00128696 13.13830938 827.64648628 13.13701439 C826.21280555 13.13926902 824.77912546 13.14195993 823.34544629 13.14505023 C819.37407285 13.15231417 815.40271825 13.15327949 811.43133906 13.153273 C807.12276703 13.1543391 802.81420349 13.1611255 798.5056361 13.1671797 C789.94596363 13.17827436 781.38629528 13.18390865 772.82661689 13.18788858 C762.57990524 13.1928902 752.33320159 13.20361644 742.08649466 13.21437032 C717.31792743 13.24002171 692.54935709 13.25503904 667.78078039 13.26788078 C659.58043674 13.27213315 651.38009333 13.27669881 643.17974997 13.2814641 C599.61176407 13.30671973 556.04377782 13.32877582 512.47578621 13.34119225 C502.37790043 13.34411375 492.28001466 13.34708123 482.18212891 13.35009766 C480.30026033 13.35065402 480.30026033 13.35065402 478.3803742 13.35122162 C437.68015833 13.36338417 396.97998564 13.39433919 356.27979007 13.43601918 C314.46491046 13.47876285 272.65005367 13.50542759 230.83515161 13.51066696 C224.93494027 13.51140746 219.03472897 13.51231816 213.13451767 13.51332474 C211.97323396 13.51351535 210.81195025 13.51370597 209.61547612 13.51390236 C190.89137184 13.5174223 172.16732147 13.53774934 153.44323702 13.56412137 C134.63959382 13.59020712 115.8360132 13.59801844 97.03235449 13.58702008 C85.84863866 13.58102346 74.6651344 13.58905852 63.48145041 13.61685092 C56.02167168 13.63402397 48.56203821 13.63322117 41.10225658 13.61748323 C36.8447664 13.60902208 32.5876817 13.6086615 28.33022811 13.63009469 C24.46229178 13.64941165 20.59508844 13.64600731 16.7271729 13.62394121 C15.33156982 13.62005508 13.93591258 13.62467587 12.54037284 13.63852822 C10.65385445 13.65605112 8.76711227 13.6400238 6.88059723 13.62214315 C5.83347884 13.62269931 4.78636045 13.62325548 3.70751119 13.62382849 C1 13 1 13 -1.37534983 10.69549105 C-3 8 -3 8 -2.875 4.25 C-2.58625 3.1775 -2.2975 2.105 -2 1 C-1.34 0.67 -0.68 0.34 0 0 Z " fill="#DFFEFE" transform="translate(125,981)"/>
<path d="M0 0 C1.21515778 -0.00556469 2.43031556 -0.01112938 3.68229631 -0.01686269 C5.03532159 -0.00783404 6.38834507 0.00146857 7.7413668 0.0110147 C9.18109257 0.01020064 10.62081809 0.0080684 12.06054023 0.00473362 C16.03945637 -0.00062376 20.01812467 0.01286544 23.99700247 0.02927339 C28.31710555 0.04380112 32.63720179 0.04095728 36.95732439 0.04027414 C44.53634351 0.04149631 52.11528072 0.0539403 59.69427341 0.07363486 C70.96418491 0.10287673 82.23406874 0.11497782 93.50401257 0.12354634 C112.46067457 0.13846802 131.41729057 0.16754841 150.37392086 0.20477462 C169.15183272 0.2416328 187.92973864 0.27273096 206.70767254 0.29594588 C207.87426619 0.29739332 209.04085985 0.29884076 210.24280483 0.30033207 C214.97797542 0.30618865 219.71314606 0.31200279 224.44831678 0.31776105 C267.62753578 0.37028293 310.80671965 0.43732333 353.9859032 0.51333022 C394.77723431 0.58512904 435.56856544 0.64780593 476.35992664 0.69985366 C477.61654642 0.70145923 478.87316621 0.7030648 480.16786538 0.70471903 C485.23392411 0.71119114 490.29998285 0.71765634 495.36604159 0.72412108 C497.89052008 0.72734283 500.41499856 0.73056549 502.93947705 0.73378904 C505.45764472 0.73700421 507.97581239 0.74021678 510.49398006 0.74342674 C550.55913369 0.79457092 590.62427587 0.85364126 630.6894164 0.91409071 C642.4299361 0.93176696 654.17045621 0.94898877 665.91097802 0.9652164 C690.60740851 0.99939691 715.30382987 1.03583279 740.00024224 1.08146295 C750.21810918 1.10026914 760.43597269 1.11755271 770.65384907 1.13037848 C779.11910581 1.14100651 787.58434858 1.15489337 796.04959205 1.17334936 C800.31634016 1.18255542 804.58307524 1.19016092 808.84983236 1.19345978 C812.72487254 1.19649323 816.59987561 1.20404377 820.4749003 1.21533077 C821.87427031 1.21859584 823.27364546 1.22016408 824.67301926 1.21990464 C826.56228739 1.21979465 828.45155249 1.22633968 830.34080791 1.2332716 C831.3901305 1.23503468 832.43945308 1.23679777 833.52057332 1.23861428 C836.10772938 1.36733413 836.10772938 1.36733413 839.10772938 2.36733413 C838.77772938 3.35733413 838.44772938 4.34733413 838.10772938 5.36733413 C837.11772938 4.70733413 836.12772938 4.04733413 835.10772938 3.36733413 C832.43140952 3.06656365 832.43140952 3.06656365 829.35248131 3.11778647 C827.53741583 3.11066025 827.53741583 3.11066025 825.68568236 3.10339007 C824.33324577 3.10823308 822.98080983 3.11325821 821.62837452 3.11844516 C820.19322509 3.11666356 818.75807652 3.11400476 817.32293016 3.11054429 C813.35211922 3.10354445 809.38140732 3.10910956 805.41060089 3.11660038 C801.10094774 3.12254756 796.79130766 3.11694761 792.48165458 3.11277956 C784.91947323 3.10707963 777.35732184 3.10886105 769.79514164 3.11546493 C758.55020525 3.12525793 747.30529092 3.12365655 736.060352 3.11971463 C717.14611665 3.11342978 698.23189374 3.11662216 679.3176598 3.12530875 C660.58078118 3.13391219 641.84390815 3.13882917 623.10702747 3.13864112 C621.94313777 3.13863347 620.77924807 3.13862583 619.58008898 3.13861795 C614.85592091 3.13857704 610.13175283 3.13851144 605.40758476 3.13841214 C561.05778383 3.13750532 516.70799144 3.14746206 472.35819347 3.1628418 C432.92411826 3.17646645 393.49004911 3.18270312 354.05597156 3.18203139 C351.52406055 3.18199098 348.99214953 3.18195062 346.46023852 3.18191031 C345.2085321 3.18188996 343.95682568 3.18186961 342.66718876 3.18184864 C336.36675475 3.18174786 330.06632074 3.18165727 323.76588672 3.1815784 C321.90156938 3.18155333 321.90156938 3.18155333 319.99958906 3.18152775 C287.08494764 3.18116286 254.17030698 3.18569822 221.2556662 3.19190496 C220.08534133 3.19212523 218.91501646 3.19234551 217.70922721 3.19257245 C213.00269459 3.19346072 208.29616197 3.19434911 203.58962936 3.19526341 C187.1910021 3.19842739 170.79237544 3.19993319 154.3937479 3.2003749 C133.26485264 3.20097111 112.1359624 3.20494789 91.00706929 3.21480636 C79.82321713 3.21993405 68.63937232 3.22232651 57.45551904 3.22081017 C49.99695285 3.22007859 42.53839385 3.22295805 35.07982997 3.22885398 C30.82234692 3.23212006 26.56487934 3.23377292 22.30739552 3.23109338 C18.44075899 3.22869504 14.57415353 3.23082918 10.70752098 3.2367115 C9.31118619 3.23802074 7.9148486 3.2376257 6.51851498 3.23539489 C4.63333696 3.23262367 2.74815259 3.23653478 0.86297745 3.2408343 C-0.70759851 3.24127154 -0.70759851 3.24127154 -2.30990326 3.24171763 C-5.00990353 3.25667781 -5.00990353 3.25667781 -7.89227062 4.36733413 C-8.22227062 5.02733413 -8.55227062 5.68733413 -8.89227062 6.36733413 C-9.22227062 5.37733413 -9.55227062 4.38733413 -9.89227062 3.36733413 C-6.58968371 0.37783887 -4.40635728 -0.00626506 0 0 Z " fill="#39C099" transform="translate(124.8922706246376,105.63266587257385)"/>
<path d="M0 0 C0.66 0 1.32 0 2 0 C2.10824843 1.6026782 2.18570645 3.20745748 2.25 4.8125 C2.29640625 5.70582031 2.3428125 6.59914063 2.390625 7.51953125 C2 10 2 10 0.34446935 11.63174208 C-2.60374068 13.35234966 -4.49612779 13.37411152 -7.90213466 13.37259549 C-9.11949453 13.37933737 -10.3368544 13.38607925 -11.59110397 13.39302543 C-12.94661575 13.38532799 -14.30212599 13.37735722 -15.65763474 13.36914349 C-17.09997504 13.37136169 -18.54231382 13.37489668 -19.98464805 13.37963298 C-23.9707859 13.38887058 -27.95669548 13.37928973 -31.94281639 13.36679858 C-36.27072899 13.35652252 -40.59861774 13.36360328 -44.92653489 13.36853105 C-52.51914752 13.37476255 -60.11168974 13.36980348 -67.7042942 13.35761642 C-78.99428575 13.33954482 -90.28423271 13.33860589 -101.57423608 13.34124239 C-120.56386524 13.34518847 -139.55346313 13.33514329 -158.54308319 13.31719017 C-177.35170394 13.29945366 -196.16031168 13.28789528 -214.96894073 13.28463173 C-216.7215638 13.2843224 -216.7215638 13.2843224 -218.50959339 13.28400682 C-224.44311541 13.28299186 -230.37663743 13.28208769 -236.31015947 13.2812262 C-278.36352013 13.27492094 -320.41686377 13.25469766 -362.47021484 13.22631836 C-403.33056548 13.19877592 -444.19091147 13.17751976 -485.05126953 13.16479492 C-486.31023256 13.16440034 -487.56919559 13.16400576 -488.86630901 13.16359923 C-501.50905664 13.15964375 -514.15180429 13.1558163 -526.79455198 13.15208265 C-552.55047387 13.14447352 -578.30639545 13.13600976 -604.06231689 13.12702942 C-605.8387339 13.12641161 -605.8387339 13.12641161 -607.65103811 13.12578133 C-686.76736582 13.09816816 -765.88368409 13.05063126 -845 13 C-844.67 12.34 -844.34 11.68 -844 11 C-843.2713992 10.99928786 -842.54279841 10.99857571 -841.7921188 10.99784199 C-762.50152588 10.92030707 -683.21093421 10.8415451 -603.92034912 10.7563324 C-602.14490816 10.75442488 -602.14490816 10.75442488 -600.33359971 10.75247882 C-574.61278432 10.72483717 -548.89196918 10.69697418 -523.17115428 10.66888306 C-510.55843883 10.65510936 -497.94572334 10.6413846 -485.33300781 10.62768555 C-484.07786299 10.62632146 -482.82271816 10.62495738 -481.52953864 10.62355196 C-440.81598033 10.57932767 -400.10241954 10.53833704 -359.38885622 10.49901587 C-317.56501191 10.45860537 -275.74117222 10.41494746 -233.91733563 10.36717889 C-228.0156887 10.36043992 -222.11404172 10.35373824 -216.21239471 10.34705925 C-215.050818 10.34574352 -213.88924129 10.34442779 -212.69246528 10.3430722 C-193.96269881 10.32195286 -175.23293057 10.30427665 -156.50315943 10.28787469 C-137.69256177 10.27132895 -118.88197072 10.25118763 -100.07138088 10.22733159 C-88.88331331 10.2132531 -77.6952509 10.20197587 -66.50717682 10.19463562 C-59.04441376 10.1894685 -51.58166056 10.18072542 -44.11890491 10.16901226 C-39.85979555 10.1624316 -35.60070042 10.15746481 -31.34158567 10.15683801 C-27.47226079 10.15623812 -23.60297015 10.15111584 -19.73365556 10.14227938 C-18.33746453 10.13990237 -16.94126941 10.13921888 -15.54507683 10.1403735 C-13.65768173 10.14169499 -11.77028544 10.1363373 -9.88289857 10.13061053 C-8.8353327 10.12951866 -7.78776682 10.1284268 -6.70845653 10.12730185 C-3.75198845 10.07734057 -3.75198845 10.07734057 0 9 C0 6.03 0 3.06 0 0 Z " fill="#48BB99" transform="translate(970,983)"/>
<path d="M0 0 C0.33 0 0.66 0 1 0 C1.33 2.64 1.66 5.28 2 8 C5.1808715 9.0602905 7.42930943 9.12713577 10.77152413 9.13061053 C12.59204288 9.13613159 12.59204288 9.13613159 14.44933978 9.14176419 C15.80588309 9.14081846 17.16242635 9.13978209 18.51896954 9.1386652 C19.95843716 9.14111133 21.39790411 9.14399481 22.83737007 9.14727798 C26.82012071 9.15507971 30.80285364 9.15662127 34.78561099 9.1572054 C39.10819663 9.15892881 43.43077279 9.16641097 47.75335294 9.17318195 C55.33813873 9.18426066 62.92292116 9.19161918 70.50771332 9.19658089 C81.78611821 9.20397549 93.06451142 9.21705596 104.34290944 9.23132664 C123.31265547 9.25516698 142.28240356 9.2743586 161.25215721 9.29092598 C180.04206819 9.3073514 198.8319753 9.32582756 217.62188148 9.34705925 C218.78897925 9.34837686 219.95607702 9.34969446 221.15854139 9.351052 C227.08533237 9.35775383 233.0121233 9.36449246 238.93891422 9.37124526 C280.94844882 9.41904336 322.95798704 9.46221829 364.9675293 9.50268555 C405.78621687 9.54201622 446.60490144 9.58343407 487.42358398 9.62768555 C488.68118448 9.62904808 489.93878498 9.63041061 491.23449459 9.63181442 C503.86351851 9.64549947 516.49254238 9.65922704 529.12156622 9.67298577 C554.84970538 9.70101439 580.57784484 9.72875917 606.3059845 9.7563324 C608.0804992 9.7582347 608.0804992 9.7582347 609.89086269 9.76017542 C688.92723693 9.84487071 767.96361798 9.9229489 847 10 C847 10.33 847 10.66 847 11 C767.30180776 11.1124964 687.6036138 11.22374844 607.90541077 11.32835388 C606.72642684 11.32990168 605.54744292 11.33144947 604.33273221 11.33304417 C578.71212079 11.36667194 553.09150909 11.40007537 527.47089707 11.4332476 C514.90711167 11.4495159 502.34332632 11.46583379 489.77954102 11.48217773 C488.52927299 11.48380334 487.27900497 11.48542894 485.99085004 11.4871038 C445.44375996 11.53984649 404.89667521 11.59586571 364.34959193 11.65357857 C322.69282863 11.71285363 281.03606218 11.76883414 239.3792889 11.82065109 C233.49968604 11.82796628 227.62008322 11.83531926 221.74048042 11.84269524 C220.58325543 11.84414581 219.42603044 11.84559638 218.23373803 11.84709091 C199.58266344 11.87056717 180.93159544 11.89753108 162.28052756 11.92578938 C143.54382041 11.95410336 124.8071113 11.97876649 106.07039439 11.99967117 C94.92960737 12.01221283 83.7888325 12.0275855 72.64805522 12.04695946 C65.21299211 12.05961377 57.77793043 12.0686309 50.342859 12.07465136 C46.1020204 12.07819062 41.86120036 12.08334843 37.62037074 12.09292836 C33.76412804 12.10160846 29.90790948 12.10566591 26.05165729 12.10600058 C24.66355848 12.10693744 23.27545955 12.10957349 21.8873678 12.11409699 C4.39359622 12.16882264 4.39359622 12.16882264 1.0625 9.375 C-0.37148358 6.16962495 -0.20006114 3.46772635 0 0 Z " fill="#36BB99" transform="translate(115,112)"/>
<path d="M0 0 C80.04066 -0.05139489 160.08132199 -0.09909655 240.12199402 -0.12702942 C241.89764207 -0.12765068 241.89764207 -0.12765068 243.70916179 -0.12828448 C269.43274467 -0.13726225 295.15632773 -0.14557293 320.87991105 -0.15319599 C333.49391535 -0.15693815 346.1079196 -0.16082779 358.72192383 -0.16479492 C359.97719941 -0.1651872 361.232475 -0.16557948 362.52578924 -0.16598364 C403.24634649 -0.1787781 443.9668913 -0.20131979 484.687441 -0.22889166 C526.51715295 -0.25716325 568.34685801 -0.27565024 610.17657936 -0.28174497 C616.0785471 -0.28260949 621.98051482 -0.2835864 627.88248253 -0.28463173 C629.04412666 -0.284834 630.2057708 -0.28503627 631.40261627 -0.28524467 C650.1363117 -0.28879612 668.86998586 -0.30272723 687.6036726 -0.3204961 C706.41649297 -0.3381201 725.22929216 -0.34491343 744.04212049 -0.34050413 C755.23265094 -0.33821448 766.42310415 -0.34437588 777.61362072 -0.36239263 C785.07673861 -0.37359226 792.53980558 -0.3740265 800.0029269 -0.36549544 C804.26310445 -0.36094012 808.52313533 -0.3612658 812.78329752 -0.37464955 C816.65244872 -0.38671331 820.52133765 -0.38518453 824.39048442 -0.37241993 C825.78771085 -0.37026234 827.18495605 -0.37322607 828.58215841 -0.38170573 C830.46851084 -0.39243578 832.35494622 -0.38309883 834.24129993 -0.37259549 C835.81288271 -0.3732974 835.81288271 -0.3732974 837.41621463 -0.37401349 C840.33838955 0.04898327 841.22463451 0.70042274 843 3 C842.34 3.33 841.68 3.66 841 4 C841 3.34 841 2.68 841 2 C840.21625 2.185625 839.4325 2.37125 838.625 2.5625 C836 3 836 3 834 2 C832.13667623 1.90291752 830.26982071 1.87134764 828.4039706 1.86938947 C826.6040238 1.86386841 826.6040238 1.86386841 824.76771444 1.85823581 C823.42148198 1.8591816 822.07524959 1.86021798 820.72901726 1.8613348 C819.30435854 1.85888938 817.87970052 1.85600612 816.45504349 1.85272202 C812.50874825 1.84491162 808.56247089 1.84337833 804.61616886 1.8427946 C800.33483982 1.84107261 796.05352038 1.83359126 791.77219689 1.82681805 C784.25829742 1.81573462 776.74440135 1.808379 769.23049545 1.80341911 C758.0574812 1.79602721 746.88447876 1.78294739 735.71147144 1.76867336 C716.9193643 1.74482811 698.12725508 1.72563857 679.33514023 1.70907402 C660.72024117 1.69265057 642.10534603 1.67417524 623.49045181 1.65294075 C622.33437608 1.65162314 621.17830034 1.65030554 619.98719201 1.648948 C614.11641244 1.6422462 608.2456329 1.63550757 602.37485339 1.62875474 C560.75853235 1.58095218 519.14220767 1.53777854 477.52587891 1.49731445 C437.08837621 1.457986 396.65087653 1.41656869 356.21337891 1.37231445 C354.96759933 1.37095192 353.72181975 1.36958939 352.43828928 1.36818558 C339.92801294 1.35450057 327.41773664 1.340773 314.90746039 1.32701423 C289.42106476 1.29898535 263.93466883 1.27124061 238.44827271 1.2436676 C236.69041793 1.2417653 236.69041793 1.2417653 234.89705094 1.23982458 C156.59803888 1.15512428 78.29901992 1.07704832 0 1 C0 0.67 0 0.34 0 0 Z " fill="#E7FEFE" transform="translate(126,980)"/>
<path d="M0 0 C0.33 1.32 0.66 2.64 1 4 C0.46146703 3.67512319 -0.07706594 3.35024638 -0.63191809 3.01552481 C-3.54333035 1.766999 -5.7220019 1.75066092 -8.8893106 1.75160301 C-10.10380364 1.74710842 -11.31829668 1.74261383 -12.56959254 1.73798305 C-13.92186237 1.74311467 -15.27413151 1.74842852 -16.62639999 1.75390434 C-18.06532804 1.75242554 -19.5042554 1.75006888 -20.94318074 1.74691135 C-24.9198029 1.74075309 -28.89632336 1.7471402 -32.87293797 1.75546761 C-37.19058097 1.76231837 -41.50821333 1.7575978 -45.82585835 1.75431263 C-53.4004317 1.75015832 -60.97497368 1.75346433 -68.54954338 1.76158905 C-79.81272636 1.77363682 -91.07588948 1.77426273 -102.33907773 1.77250507 C-121.2836216 1.76987436 -140.22815153 1.77657112 -159.17269135 1.78853989 C-177.93665384 1.80036424 -196.70061053 1.80806982 -215.46457672 1.81024551 C-216.6302194 1.81038299 -217.79586209 1.81052047 -218.99682728 1.81066212 C-224.91626921 1.81133876 -230.83571115 1.81194154 -236.75515309 1.81251587 C-278.70868023 1.81671937 -320.66219979 1.83020155 -362.61572266 1.84912109 C-403.3790686 1.86748273 -444.14241247 1.8816535 -484.90576172 1.89013672 C-486.16173664 1.89039977 -487.41771155 1.89066282 -488.71174632 1.89093385 C-501.32448716 1.89357083 -513.93722801 1.89612247 -526.54996889 1.89861157 C-552.24475883 1.90368432 -577.93954863 1.90932682 -603.63433838 1.91531372 C-605.40653892 1.91572559 -605.40653892 1.91572559 -607.21454148 1.91614578 C-686.14303081 1.93455455 -765.07151593 1.96624582 -844 2 C-844 1.34 -844 0.68 -844 0 C-764.52071037 -0.11250502 -685.04141901 -0.2237612 -605.56211853 -0.32835388 C-604.3862302 -0.32990168 -603.21034186 -0.33144947 -601.99882055 -0.33304417 C-576.44501142 -0.36667254 -550.891202 -0.40007597 -525.33739227 -0.4332476 C-512.80622696 -0.44951579 -500.2750617 -0.4658337 -487.74389648 -0.48217773 C-486.49687967 -0.48380334 -485.24986285 -0.48542894 -483.96505764 -0.4871038 C-443.52895072 -0.53983932 -403.09284916 -0.59585937 -362.65674907 -0.65357857 C-321.11136747 -0.71286386 -279.56598271 -0.7688438 -238.02059108 -0.82065109 C-232.15568431 -0.8279662 -226.29077759 -0.83531919 -220.4258709 -0.84269524 C-219.27154705 -0.84414581 -218.11722321 -0.84559638 -216.92791985 -0.84709091 C-198.32931089 -0.87056022 -179.73070855 -0.89752492 -161.13210632 -0.92578938 C-142.44465371 -0.95411454 -123.75719914 -0.97877482 -105.06973673 -0.99967117 C-93.96047519 -1.01220557 -82.85122588 -1.02757289 -71.74197414 -1.04695946 C-64.32537232 -1.05962546 -56.90877192 -1.06863611 -49.49216173 -1.07465136 C-45.26350773 -1.07818635 -41.03487242 -1.08333261 -36.80622745 -1.09292836 C-32.95869955 -1.101628 -29.1111959 -1.10566661 -25.26365844 -1.10600058 C-23.22913408 -1.10737558 -21.19461492 -1.11371107 -19.16010061 -1.12025276 C-12.68498982 -1.11592295 -6.41768418 -0.87554383 0 0 Z " fill="#42BA97" transform="translate(969,979)"/>
<path d="M0 0 C0.99 0 1.98 0 3 0 C3 181.5 3 363 3 550 C2.67 550 2.34 550 2 550 C1.34 368.5 0.68 187 0 0 Z " fill="#9BEED8" transform="translate(980,130)"/>
<path d="M0 0 C0.33 0 0.66 0 1 0 C1.00173625 0.75757215 1.0034725 1.51514431 1.00526136 2.29567319 C1.10831094 47.20509595 1.21642798 92.11450406 1.33111694 137.02389868 C1.34488636 142.41738093 1.35861348 147.81086328 1.37231445 153.2043457 C1.37504276 154.27808161 1.37777106 155.35181751 1.38058204 156.45809086 C1.4246455 173.83914342 1.46528315 191.22020238 1.50465261 208.60126612 C1.54513184 226.43857478 1.58929755 244.27587156 1.63687855 262.1131627 C1.66611762 273.11786277 1.69248836 284.12256202 1.71517897 295.12727758 C1.7310187 302.67573182 1.75044237 310.22417157 1.77266841 317.77260969 C1.78538223 322.12626947 1.79653111 326.47991824 1.80341911 330.83359146 C1.80976786 334.82431546 1.82064626 338.81500126 1.8350333 342.80570414 C1.83943812 344.24464791 1.84222166 345.68359782 1.84316199 347.12254802 C1.84939992 355.13959157 2.09593746 363.03062031 3 371 C4.32 371.33 5.64 371.66 7 372 C7 372.99 7 373.98 7 375 C7.99 375.33 8.98 375.66 10 376 C4.65132743 376.48624296 4.65132743 376.48624296 1.82763696 374.37824082 C-0.53903622 371.2985708 -0.49738882 369.55989255 -0.49219131 365.69814682 C-0.50015551 364.39435947 -0.5081197 363.09057212 -0.51632524 361.74727607 C-0.50491291 360.29698897 -0.49313052 358.84670476 -0.48101807 357.39642334 C-0.48276179 355.8585425 -0.48626305 354.32066281 -0.49137473 352.78278947 C-0.50033767 348.55028986 -0.48429319 344.31819354 -0.46426249 340.08574533 C-0.44702074 335.52408246 -0.45283186 330.96244312 -0.45587158 326.40075684 C-0.45797102 318.49518171 -0.44539977 310.58973843 -0.42292023 302.68419647 C-0.39043959 291.25407146 -0.37999724 279.82401032 -0.37496826 268.39384416 C-0.36620942 249.85009171 -0.33957788 231.30640957 -0.30175781 212.76269531 C-0.26505296 194.7470739 -0.23673373 176.73147156 -0.21972656 158.71582031 C-0.21867567 157.60570885 -0.21762477 156.49559739 -0.21654204 155.35184619 C-0.21132196 149.78285434 -0.20626711 144.21386236 -0.20129442 138.64487028 C-0.15981406 92.42986482 -0.08934961 46.21493603 0 0 Z " fill="#9AEED7" transform="translate(970,600)"/>
<path d="M0 0 C1.33333333 0.66666667 2.66666667 1.33333333 4 2 C5.99110401 2.38290462 7.99100513 2.72604615 10 3 C9.01 3.495 9.01 3.495 8 4 C8 6.97 8 9.94 8 13 C7.01 12.34 6.02 11.68 5 11 C4.8125 7.875 4.8125 7.875 5 5 C3.68 5 2.36 5 1 5 C-0.75 3 -0.75 3 -2 1 C-1.34 0.67 -0.68 0.34 0 0 Z " fill="#3DC7A1" transform="translate(115,978)"/>
<path d="M0 0 C1 3 1 3 0 6 C0.16666667 8.08333333 0.16666667 8.08333333 1 10 C1.99 10.66 2.98 11.32 4 12 C0 12 0 12 -1.8125 10.4375 C-3.49538999 6.98314687 -2.89812761 4.66159719 -2 1 C-1.34 0.67 -0.68 0.34 0 0 Z " fill="#D2FAF3" transform="translate(125,981)"/>
<path d="M0 0 C0.99 0.66 1.98 1.32 3 2 C3 2.66 3 3.32 3 4 C3.99 4.66 4.98 5.32 6 6 C4.35 6.33 2.7 6.66 1 7 C-0.32 5.35 -1.64 3.7 -3 2 C-2.01 1.34 -1.02 0.68 0 0 Z " fill="#3DC29F" transform="translate(123,991)"/>
<path d="M0 0 C0.66 0.33 1.32 0.66 2 1 C2 1.99 2 2.98 2 4 C2.16442277 7.06991681 2.16442277 7.06991681 3 10 C4.95163118 11.43637698 4.95163118 11.43637698 7 12 C4.37344067 11.64505955 2.42031739 11.27538036 0.1875 9.8125 C-1.54283822 7.17145746 -1.26257642 5.08527294 -1 2 C-0.67 1.34 -0.34 0.68 0 0 Z " fill="#89E8CF" transform="translate(117,110)"/>
<path d="M0 0 C0 1.65 0 3.3 0 5 C-0.99 4.34 -1.98 3.68 -3 3 C-4.9896995 2.60986284 -6.99019869 2.26797351 -9 2 C-5.96271914 -1.03728086 -4.06215635 -1.35405212 0 0 Z " fill="#44C19C" transform="translate(116,129)"/>
<path d="M0 0 C0.66 0 1.32 0 2 0 C2.33 2.64 2.66 5.28 3 8 C1.68 8.33 0.36 8.66 -1 9 C-0.67 6.03 -0.34 3.06 0 0 Z " fill="#3CBD9C" transform="translate(965,111)"/>
<path d="M0 0 C1.8871875 0.061875 1.8871875 0.061875 3.8125 0.125 C3.8125 0.455 3.8125 0.785 3.8125 1.125 C2.719375 1.228125 1.62625 1.33125 0.5 1.4375 C-3.6134383 2.19364184 -3.6134383 2.19364184 -6.1875 5.125 C-6.8475 6.115 -7.5075 7.105 -8.1875 8.125 C-7.875 5.25 -7.875 5.25 -7.1875 2.125 C-4.09861478 0.06574319 -3.47814073 -0.1140374 0 0 Z " fill="#A0EEDC" transform="translate(125.1875,108.875)"/>
<path d="M0 0 C0.78375 0.185625 1.5675 0.37125 2.375 0.5625 C4.97089775 1.25962266 4.97089775 1.25962266 7 0 C7 1.32 7 2.64 7 4 C5.35 4.33 3.7 4.66 2 5 C2 4.01 2 3.02 2 2 C1.34 2 0.68 2 0 2 C0 1.34 0 0.68 0 0 Z " fill="#A0EDD8" transform="translate(975,970)"/>
<path d="M0 0 C2.875 -0.1875 2.875 -0.1875 6 0 C6.66 0.99 7.32 1.98 8 3 C4.23375329 4.25541557 2.62811066 3.37061958 -1 2 C-0.67 1.34 -0.34 0.68 0 0 Z " fill="#CBFAF2" transform="translate(107,131)"/>
<path d="M0 0 C0.66 0 1.32 0 2 0 C2 2.97 2 5.94 2 9 C1.01 8.34 0.02 7.68 -1 7 C-1.25 3.9375 -1.25 3.9375 -1 1 C-0.67 0.67 -0.34 0.34 0 0 Z " fill="#4CBB9F" transform="translate(121,982)"/>
</svg>
